# xmcd
# 
# Track frame offsets:
#     150
#     14082
#     27954
#     41870
#     63639
#     71607
#     93376
#     115235
#     130087
#     140339
#     155191
#     170107
#     183285
#     196463
#     209512
#     222559
#     244148
#     265737
#     279061
#     292352
#     305066
#     317780
#     321412
#     324292
#     327185
#     340515
# 
# Disc length: 4716
# 
# Revision: 1
# Processed by: cddbd v1.5.2PL0 Copyright (c) Steve Scherf et al.
# Submitted via: fre:ac v1.0.17
# 
DISCID=a3126a1a
DTITLE=Dieter Kropp - Blues Harp Schule 2 - Disc 2
DYEAR=2015
DGENRE=Blues
TTITLE0=Need my baby - Komplete version
TTITLE1=Need my baby - Playalong mit Gesang
TTITLE2=Need my baby - Playalong Blanko (Ohne Gesang Ohen Harp)
TTITLE3=I almost lost my mind - Komplete Version
TTITLE4=I almost lost my mind - Melodie
TTITLE5=I almost lost my mind - Playalong mit Gesang
TTITLE6=I almost lost my mind - Playalong Blanko (ohne Gesang Ohne Harp)
TTITLE7=Ich Spiel Harmonica - Complete version
TTITLE8=Ich spiel Harmonica - Nur die Begleitung
TTITLE9=Ich spiel Harmonica - Playalong mit Gesang
TTITLE10=Ich spiel Harmonica - Playalong Blanko (Ohne Gesang Ohne Harp)
TTITLE11=Scarborough Fair - Complete version
TTITLE12=Scarborough Fair - Playalong
TTITLE13=2rd Position Shuffle - Complete version
TTITLE14=3rd Position Shufle - Playalong
TTITLE15=In a blue Mood - Complete Version
TTITLE16=In a blue mood - Playalong
TTITLE17=Rainy Day - Complete Version
TTITLE18=Rainy Day - Playalong
TTITLE19=Swingin Around - Complete Version
TTITLE20=Swingin Around - Playalong
TTITLE21=Einspiel-Übung 20: D-Dorisch-Skala
TTITLE22=Einspiel-Übung 21: D-Blues-Skala - Mittle Oktave
TTITLE23=Einspiel-Übung 22: D-Blues-Skala - Untere Oktave
TTITLE24=California Sun - Complete Version
TTITLE25=California Sun - Playalong
EXTD=
EXTT0=
EXTT1=
EXTT2=
EXTT3=
EXTT4=
EXTT5=
EXTT6=
EXTT7=
EXTT8=
EXTT9=
EXTT10=
EXTT11=
EXTT12=
EXTT13=
EXTT14=
EXTT15=
EXTT16=
EXTT17=
EXTT18=
EXTT19=
EXTT20=
EXTT21=
EXTT22=
EXTT23=
EXTT24=
EXTT25=
PLAYORDER=
